<svg width="128" height="128" viewBox="0 0 128 128" fill="none" xmlns="http://www.w3.org/2000/svg">
  <rect x="8" y="8" width="112" height="112" rx="28" fill="#201208"/>
  <rect x="14" y="14" width="100" height="100" rx="24" fill="url(#paint0_linear)"/>
  <circle cx="64" cy="64" r="40" fill="#fff2d7" fill-opacity="0.12"/>
  <path d="M48 77H37C32.5817 77 29 73.4183 29 69V59C29 54.5817 32.5817 51 37 51H48L69 32C72.248 29.0614 77.4211 31.3658 77.4211 35.7475V92.2525C77.4211 96.6342 72.248 98.9386 69 96L48 77Z" fill="#fff2d7"/>
  <path d="M88 48C93.095 52.1195 96.35 58.4119 96.35 65.46C96.35 72.2167 93.3583 78.28 88.63 82.4" stroke="#fff2d7" stroke-width="8" stroke-linecap="round"/>
  <path d="M84 61C85.103 62.1057 85.78 63.6896 85.78 65.44C85.78 67.0713 85.1921 68.5591 84.22 69.64" stroke="#fff2d7" stroke-width="8" stroke-linecap="round"/>
  <defs>
    <linearGradient id="paint0_linear" x1="64" y1="14" x2="64" y2="114" gradientUnits="userSpaceOnUse">
      <stop stop-color="#D8943B"/>
      <stop offset="1" stop-color="#875019"/>
    </linearGradient>
  </defs>
</svg>
